<svg width="24" height="24" viewBox="0 0 24 24" fill="none" xmlns="http://www.w3.org/2000/svg">
<path fill-rule="evenodd" clip-rule="evenodd" d="M3.17574 3.17574C3.41005 2.94142 3.78995 2.94142 4.02426 3.17574L12 11.1515L19.9757 3.17574C20.2101 2.94142 20.5899 2.94142 20.8243 3.17574C21.0586 3.41005 21.0586 3.78995 20.8243 4.02426L12.8485 12L20.8243 19.9757C21.0586 20.2101 21.0586 20.5899 20.8243 20.8243C20.5899 21.0586 20.2101 21.0586 19.9757 20.8243L12 12.8485L4.02426 20.8243C3.78995 21.0586 3.41005 21.0586 3.17574 20.8243C2.94142 20.5899 2.94142 20.2101 3.17574 19.9757L11.1515 12L3.17574 4.02426C2.94142 3.78995 2.94142 3.41005 3.17574 3.17574Z" fill="#969696"/>
</svg>
