<svg width="67" height="22" viewBox="0 0 67 22" fill="none" xmlns="http://www.w3.org/2000/svg">
<path fill-rule="evenodd" clip-rule="evenodd" d="M5.2388 5.30274H0V16.6973H5.2388C5.87645 16.6965 6.50051 16.5051 7.03518 16.1463C7.57026 15.7875 7.9933 15.2765 8.25364 14.6748C8.51397 14.0732 8.60047 13.4067 8.50244 12.7554C8.40481 12.1042 8.12677 11.4961 7.70208 11.0044C8.12965 10.5129 8.40976 9.904 8.50903 9.25137C8.6083 8.59868 8.52262 7.93024 8.26188 7.32694C8.00154 6.72363 7.57727 6.21137 7.04053 5.85209C6.5038 5.49286 5.8781 5.30204 5.2388 5.30274ZM2.21036 7.58687H5.2388C5.39162 7.57304 5.54527 7.59219 5.69026 7.64312C5.75534 7.66584 5.81754 7.69468 5.87686 7.72916C5.95059 7.77189 6.01938 7.82329 6.082 7.88251C6.19486 7.98952 6.28507 8.11962 6.34686 8.26457C6.40865 8.40957 6.44037 8.56622 6.44037 8.72458C6.44037 8.78864 6.43501 8.85239 6.42471 8.91518C6.40988 9.00771 6.38352 9.09823 6.34686 9.18459C6.3102 9.27063 6.26365 9.35146 6.20804 9.42531C6.16974 9.47586 6.12772 9.52317 6.082 9.56664C5.96872 9.67365 5.83567 9.75517 5.69026 9.80609C5.54527 9.85696 5.39162 9.87612 5.2388 9.86228H2.21036V7.58687ZM5.2388 14.4219H2.21036V12.1377H5.2388C5.41757 12.1377 5.59181 12.1825 5.74752 12.266C5.8472 12.3194 5.93947 12.3887 6.02021 12.4722C6.07623 12.5301 6.12525 12.5934 6.16768 12.6611C6.21134 12.7311 6.24718 12.8057 6.27519 12.8836C6.32009 13.0092 6.34398 13.1432 6.34398 13.2798C6.34398 13.5827 6.2274 13.8732 6.02021 14.0873C5.81301 14.3015 5.53208 14.4219 5.2388 14.4219Z" fill="black"/>
<path d="M19.5802 16.6973V14.4219H14.0629V12.1377H19.5802V9.86228H14.0629V7.58687H19.5802V5.30274H11.8526V16.6973H19.5802Z" fill="black"/>
<path d="M46.7447 5.30274V16.6973H54.4636V14.4219H48.955V12.1377H54.4636V9.86228H48.955V7.58687H54.4636V5.30274H46.7447Z" fill="black"/>
<path d="M35.1619 5.30274H37.3636V16.6973H35.1619V5.30274Z" fill="black"/>
<path d="M44.3905 16.6973L40.7801 11.0044L44.3905 5.30274H41.8766L38.2661 11.0044L41.8766 16.6973H44.3905Z" fill="black"/>
<path fill-rule="evenodd" clip-rule="evenodd" d="M65.354 6.30624C65.9735 6.94664 66.3228 7.81456 66.3249 8.72021C66.3265 9.44745 66.1032 10.1561 65.6872 10.7428C65.2716 11.3294 64.685 11.7632 64.0136 11.9808L67 16.6973H64.4692L61.5837 12.1377H59.9809V16.6973H57.7792V5.30274H63.018C63.8945 5.30502 64.734 5.66585 65.354 6.30624ZM63.4694 7.64312C63.4056 7.62072 63.3401 7.60449 63.2738 7.59448C63.1893 7.58171 63.1036 7.5791 63.018 7.58687H59.9809V9.86228H63.018C63.0975 9.86947 63.1774 9.86771 63.2561 9.85723C63.3286 9.84754 63.3998 9.83046 63.4694 9.80609C63.6148 9.75517 63.7479 9.67365 63.8612 9.56664C63.974 9.45969 64.0642 9.32953 64.126 9.18459C64.1878 9.03964 64.2195 8.88299 64.2195 8.72458C64.2195 8.56622 64.1878 8.40957 64.126 8.26457C64.0642 8.11962 63.974 7.98952 63.8612 7.88251C63.8084 7.8326 63.7512 7.78828 63.6906 7.74996C63.6544 7.72708 63.6169 7.70633 63.5782 7.68792C63.5428 7.67105 63.5065 7.6561 63.4694 7.64312Z" fill="black"/>
<path d="M28.5559 5.30274L32.7489 16.6973H30.3614L27.3667 8.54584L24.3634 16.6973H21.9759L26.1689 5.30274H28.5559Z" fill="black"/>
</svg>
 