<svg width="24" height="24" viewBox="0 0 24 24" fill="none" xmlns="http://www.w3.org/2000/svg">
<path d="M4.169 3.20057C3.90157 2.93314 3.46799 2.93314 3.20057 3.20057C2.93314 3.46799 2.93314 3.90157 3.20057 4.169L6.68375 7.65217H4.17393C3.63365 7.65217 3.19566 8.09016 3.19566 8.63044V15.3696C3.19566 15.9098 3.63365 16.3478 4.17393 16.3478H7.27498C7.48466 16.3478 7.68879 16.4152 7.85727 16.54L13.3742 20.6266C14.0199 21.1049 14.9348 20.644 14.9348 19.8406V15.9032L19.831 20.7994C20.0984 21.0669 20.532 21.0669 20.7994 20.7994C21.0669 20.532 21.0669 20.0984 20.7994 19.831L4.169 3.20057Z" fill="white"/>
<path d="M9.99014 7.28462L13.2672 10.5394C13.8844 11.1524 14.9348 10.7152 14.9348 9.84527V4.16062C14.9348 3.35695 14.0194 2.89614 13.3739 3.37482L10.0968 5.80473C9.61582 6.1614 9.56527 6.86264 9.99014 7.28462Z" fill="white"/>
<path d="M18.0119 8.49579C17.6974 8.41716 17.3788 8.60837 17.3001 8.92286C17.2215 9.23735 17.4127 9.55603 17.7272 9.63465C18.1707 9.74552 19.2391 10.3635 19.2391 12C19.2391 13.6365 18.1707 14.2545 17.7272 14.3654C17.4127 14.444 17.2215 14.7627 17.3001 15.0771C17.3788 15.3916 17.6974 15.5828 18.0119 15.5042C18.8728 15.289 20.4131 14.2765 20.4131 12C20.4131 9.72348 18.8728 8.71101 18.0119 8.49579Z" fill="white"/>
</svg>
