<svg width="32" height="32" viewBox="0 0 32 32" fill="none" xmlns="http://www.w3.org/2000/svg">
<path fill-rule="evenodd" clip-rule="evenodd" d="M22.5196 13.2967C22.5196 18.4265 18.361 22.5851 13.2312 22.5851C8.10133 22.5851 3.94277 18.4265 3.94277 13.2967C3.94277 8.16688 8.10133 4.00833 13.2312 4.00833C18.361 4.00833 22.5196 8.16688 22.5196 13.2967ZM20.4419 21.4554C18.5214 23.1541 15.9967 24.1851 13.2312 24.1851C7.21767 24.1851 2.34277 19.3102 2.34277 13.2967C2.34277 7.28322 7.21767 2.40833 13.2312 2.40833C19.2447 2.40833 24.1196 7.28322 24.1196 13.2967C24.1196 16.0628 23.0881 18.588 21.3888 20.5087C21.5339 20.5389 21.6723 20.6097 21.7859 20.7213L29.4178 28.2211C29.7329 28.5308 29.7374 29.0373 29.4277 29.3525C29.118 29.6676 28.6115 29.672 28.2963 29.3623L20.6644 21.8625C20.5473 21.7473 20.473 21.605 20.4419 21.4554Z" fill="#111111"/>
</svg>
